HIERARCHY
ROOT hip
{
  OFFSET 0.00112043 5.09927 -9.65472
  CHANNELS 6 Xposition Yposition Zposition Zrotation Xrotation Yrotation
  JOINT abdomen
  {
    OFFSET 0 -1.186 -1.5018
    CHANNELS 3 Zrotation Xrotation Yrotation
    JOINT abdomen2
    {
      OFFSET 0 9.964 0.2134
      CHANNELS 3 Zrotation Xrotation Yrotation
      JOINT chest
      {
        OFFSET 0 13.134 -3.2573
        CHANNELS 3 Zrotation Xrotation Yrotation
        JOINT neck
        {
          OFFSET 0 20.686 -1.6905
          CHANNELS 3 Zrotation Xrotation Yrotation
          JOINT head
          {
            OFFSET 0 7.238 -0.1237
            CHANNELS 3 Zrotation Xrotation Yrotation
            End Site
            {
              OFFSET 0 0 0
            }
          }
        }
        JOINT lCollar
        {
          OFFSET 1.7069 20.075 5.0056
          CHANNELS 3 Zrotation Xrotation Yrotation
          JOINT lShldr
          {
            OFFSET 13.6458 -0.047 -4.849
            CHANNELS 3 Zrotation Xrotation Yrotation
            JOINT lForeArm
            {
              OFFSET 28.3255 -0.9759 2.2888
              CHANNELS 3 Zrotation Xrotation Yrotation
              JOINT lHand
              {
                OFFSET 22.1583 -0.53 10.8316
                CHANNELS 3 Zrotation Xrotation Yrotation
                JOINT lThumb1
                {
                  OFFSET 0.786 0.112 2.5817
                  CHANNELS 3 Zrotation Xrotation Yrotation
                  JOINT lThumb2
                  {
                    OFFSET 0.3601 -0.878 4.2331
                    CHANNELS 3 Zrotation Xrotation Yrotation
                    JOINT lThumb2_End
                    {
                      OFFSET 1.8127 -1.216 2.2227
                      CHANNELS 3 Zrotation Xrotation Yrotation
                      End Site
                      {
                        OFFSET 0.0181 -0.0122 0.0222
                      }
                    }
                  }
                }
                JOINT lCarpal1
                {
                  OFFSET 0.9571 1.114 1.7695
                  CHANNELS 3 Zrotation Xrotation Yrotation
                  JOINT lIndex1
                  {
                    OFFSET 4.1246 0.487 4.1451
                    CHANNELS 3 Zrotation Xrotation Yrotation
                    JOINT lIndex2
                    {
                      OFFSET 3.4052 -1.454 2.7682
                      CHANNELS 3 Zrotation Xrotation Yrotation
                      JOINT lIndex2_End
                      {
                        OFFSET 1.4531 -1.795 1.2713
                        CHANNELS 3 Zrotation Xrotation Yrotation
                        End Site
                        {
                          OFFSET 0.0145 -0.0179 0.0127
                        }
                      }
                    }
                  }
                  JOINT lMid1
                  {
                    OFFSET 5.6954 0.21 2.1184
                    CHANNELS 3 Zrotation Xrotation Yrotation
                    JOINT lMid2
                    {
                      OFFSET 3.9766 -1.54 2.3863
                      CHANNELS 3 Zrotation Xrotation Yrotation
                      JOINT lMid2_End
                      {
                        OFFSET 1.4042 -1.926 1.125
                        CHANNELS 3 Zrotation Xrotation Yrotation
                        End Site
                        {
                          OFFSET 0.014 -0.0193 0.0113
                        }
                      }
                    }
                  }
                }
                JOINT lCarpal2
                {
                  OFFSET 2.0956 0.66 -0.3894
                  CHANNELS 3 Zrotation Xrotation Yrotation
                  JOINT lRing1
                  {
                    OFFSET 5.0395 -0.09 2.4971
                    CHANNELS 3 Zrotation Xrotation Yrotation
                    JOINT lRing2
                    {
                      OFFSET 3.7921 -1.552 1.4806
                      CHANNELS 3 Zrotation Xrotation Yrotation
                      JOINT lRing2_End
                      {
                        OFFSET 1.4655 -1.808 0.9609
                        CHANNELS 3 Zrotation Xrotation Yrotation
                        End Site
                        {
                          OFFSET 0.0147 -0.0181 0.0096
                        }
                      }
                    }
                  }
                  JOINT lPinky1
                  {
                    OFFSET 4.9141 -1.269 0.3591
                    CHANNELS 3 Zrotation Xrotation Yrotation
                    JOINT lPinky2
                    {
                      OFFSET 3.1477 -1.685 0.8462
                      CHANNELS 3 Zrotation Xrotation Yrotation
                      JOINT lPinky2_End
                      {
                        OFFSET 0.8055 -1.585 0.7955
                        CHANNELS 3 Zrotation Xrotation Yrotation
                        End Site
                        {
                          OFFSET 0.0081 -0.0158 0.008
                        }
                      }
                    }
                  }
                }
              }
            }
          }
        }
        JOINT rCollar
        {
          OFFSET -1.7069 20.075 5.0056
          CHANNELS 3 Zrotation Xrotation Yrotation
          JOINT rShldr
          {
            OFFSET -13.6458 -0.047 -4.849
            CHANNELS 3 Zrotation Xrotation Yrotation
            JOINT rForeArm
            {
              OFFSET -28.3255 -0.9759 2.2888
              CHANNELS 3 Zrotation Xrotation Yrotation
              JOINT rHand
              {
                OFFSET -22.1583 -0.53 10.8316
                CHANNELS 3 Zrotation Xrotation Yrotation
                JOINT rThumb1
                {
                  OFFSET -0.786 0.112 2.5817
                  CHANNELS 3 Zrotation Xrotation Yrotation
                  JOINT rThumb2
                  {
                    OFFSET -0.3601 -0.878 4.2331
                    CHANNELS 3 Zrotation Xrotation Yrotation
                    JOINT rThumb2_End
                    {
                      OFFSET -1.8127 -1.216 2.2227
                      CHANNELS 3 Zrotation Xrotation Yrotation
                      End Site
                      {
                        OFFSET -0.0181 -0.0122 0.0222
                      }
                    }
                  }
                }
                JOINT rCarpal1
                {
                  OFFSET -0.9571 1.114 1.7695
                  CHANNELS 3 Zrotation Xrotation Yrotation
                  JOINT rIndex1
                  {
                    OFFSET -4.1246 0.487 4.1451
                    CHANNELS 3 Zrotation Xrotation Yrotation
                    JOINT rIndex2
                    {
                      OFFSET -3.4052 -1.454 2.7682
                      CHANNELS 3 Zrotation Xrotation Yrotation
                      JOINT rIndex2_End
                      {
                        OFFSET -1.4531 -1.795 1.2713
                        CHANNELS 3 Zrotation Xrotation Yrotation
                        End Site
                        {
                          OFFSET -0.0145 -0.018 0.0127
                        }
                      }
                    }
                  }
                  JOINT rMid1
                  {
                    OFFSET -5.6954 0.21 2.1184
                    CHANNELS 3 Zrotation Xrotation Yrotation
                    JOINT rMid2
                    {
                      OFFSET -3.9766 -1.54 2.3863
                      CHANNELS 3 Zrotation Xrotation Yrotation
                      JOINT rMid2_End
                      {
                        OFFSET -1.4042 -1.926 1.125
                        CHANNELS 3 Zrotation Xrotation Yrotation
                        End Site
                        {
                          OFFSET -0.014 -0.0193 0.0113
                        }
                      }
                    }
                  }
                }
                JOINT rCarpal2
                {
                  OFFSET -2.0956 0.66 -0.3894
                  CHANNELS 3 Zrotation Xrotation Yrotation
                  JOINT rRing1
                  {
                    OFFSET -5.0395 -0.09 2.4971
                    CHANNELS 3 Zrotation Xrotation Yrotation
                    JOINT rRing2
                    {
                      OFFSET -3.7921 -1.552 1.4806
                      CHANNELS 3 Zrotation Xrotation Yrotation
                      JOINT rRing2_End
                      {
                        OFFSET -1.4655 -1.808 0.9609
                        CHANNELS 3 Zrotation Xrotation Yrotation
                        End Site
                        {
                          OFFSET -0.0147 -0.0181 0.0096
                        }
                      }
                    }
                  }
                  JOINT rPinky1
                  {
                    OFFSET -4.9141 -1.269 0.3592
                    CHANNELS 3 Zrotation Xrotation Yrotation
                    JOINT rPinky2
                    {
                      OFFSET -3.1477 -1.685 0.8462
                      CHANNELS 3 Zrotation Xrotation Yrotation
                      JOINT rPinky2_End
                      {
                        OFFSET -0.8055 -1.585 0.7955
                        CHANNELS 3 Zrotation Xrotation Yrotation
                        End Site
                        {
                          OFFSET -0.0081 -0.0158 0.008
                        }
                      }
                    }
                  }
                }
              }
            }
          }
        }
      }
    }
  }
  JOINT lThigh
  {
    OFFSET 8.367 -8.2066 0.5982
    CHANNELS 3 Zrotation Xrotation Yrotation
    JOINT lShin
    {
      OFFSET 2.1923 -43.463 -0.4932
      CHANNELS 3 Zrotation Xrotation Yrotation
      JOINT lFoot
      {
        OFFSET 0.7333 -45.8593 -2.6451
        CHANNELS 3 Zrotation Xrotation Yrotation
        End Site
        {
          OFFSET 2.6618 -4.2699 12.3931
        }
      }
    }
  }
  JOINT rThigh
  {
    OFFSET -8.367 -8.2066 0.5982
    CHANNELS 3 Zrotation Xrotation Yrotation
    JOINT rShin
    {
      OFFSET -2.1923 -43.463 -0.4931
      CHANNELS 3 Zrotation Xrotation Yrotation
      JOINT rFoot
      {
        OFFSET -0.7333 -45.8593 -2.6451
        CHANNELS 3 Zrotation Xrotation Yrotation
        End Site
        {
          OFFSET -2.6618 -4.2699 12.3931
        }
      }
    }
  }
}
MOTION
Frames:	4
Frame Time:	0.0333333
0 -0.3129 2.51682 0 0 -0 0 0 -0 0 0 -0 0 0 -0 0 0 -0 0 0 -0 0 0 -0 1.66051 0.0835086 5.75766 -0.0175111 0.895433 15.7816 7.95139e-016 -1.98785e-016 -0 5.46658e-016 -3.97569e-016 -0 5.96354e-016 0 -0 3.97569e-016 1.98785e-016 9.54166e-015 1.49089e-016 -3.97569e-016 -0 6.4605e-016 0 3.18055e-015 5.96354e-016 0 3.18055e-015 8.94531e-016 -1.98785e-016 6.36111e-015 6.4605e-016 0 3.18055e-015 5.96354e-016 0 3.18055e-015 8.94531e-016 -1.98785e-016 6.36111e-015 1.49089e-016 -3.97569e-016 -0 6.4605e-016 0 3.18055e-015 5.96354e-016 0 3.18055e-015 8.94531e-016 -1.98785e-016 6.36111e-015 6.4605e-016 0 3.18055e-015 5.96354e-016 0 3.18055e-015 8.94531e-016 -1.98785e-016 6.36111e-015 0 0 -0 -1.4496 0.0636048 -5.0245 -1.74811 1.20616 -16.8394 -1.19271e-015 1.98785e-016 -3.18055e-015 -3.97569e-016 1.98785e-016 -3.18055e-015 -2.98177e-016 1.98785e-016 -3.18055e-015 -2.98177e-016 3.97569e-016 -0 4.96962e-016 0 -6.36111e-015 -9.93923e-017 3.97569e-016 -0 -8.94531e-016 5.96354e-016 -0 -3.97569e-016 3.97569e-016 -0 -9.93923e-017 3.97569e-016 -0 -8.94531e-016 5.96354e-016 -0 -3.97569e-016 3.97569e-016 -0 4.96962e-016 0 -6.36111e-015 -9.93923e-017 3.97569e-016 -0 -8.94531e-016 5.96354e-016 -0 -3.97569e-016 3.97569e-016 -0 -9.93923e-017 3.97569e-016 -0 -8.94531e-016 5.96354e-016 -0 -3.97569e-016 3.97569e-016 -0 -4.66111 -0.998717 0.12318 0.00986924 1.54847 0.176523 4.65186 -0.572283 -0.254274 4.66111 -0.998582 -0.123182 -0.00986898 1.54833 -0.176521 -4.65186 -0.572281 0.254274 
-0.0694251 -4.44399 7.49945 0 15.997 -0 -0.255166 6.4646 -0.171628 -0.495478 12.9299 -0.317124 -0.495478 12.9299 -0.317123 3.05381e-006 6.99713 -1.08103e-006 -3.40246e-007 17.9984 1.25454e-009 2.97585 -2.57704 3.53691 -76.2534 -1.8177 7.2003 -22.7026 5.84679 21.6635 1.75973 0.576155 -28.9033 3.97569e-016 1.19271e-015 -9.54166e-015 -3.97569e-016 1.98785e-015 -9.54166e-015 3.31043e-031 1.98785e-015 -9.54166e-015 3.97569e-016 0 -9.54166e-015 1.59028e-015 1.98785e-015 9.54166e-015 -3.97569e-016 1.19271e-015 -1.27222e-014 -3.97569e-016 1.98785e-015 -1.27222e-014 1.59028e-015 1.98785e-015 9.54166e-015 -3.97569e-016 1.19271e-015 -1.27222e-014 -3.97569e-016 1.98785e-015 -1.27222e-014 3.97569e-016 0 -9.54166e-015 1.59028e-015 1.98785e-015 9.54166e-015 -3.97569e-016 1.19271e-015 -1.27222e-014 -3.97569e-016 1.98785e-015 -1.27222e-014 1.59028e-015 1.98785e-015 9.54166e-015 -3.97569e-016 1.19271e-015 -1.27222e-014 -3.97569e-016 1.98785e-015 -1.27222e-014 11.7802 -1.8723 -4.79252 69.2038 -1.28812 -8.70326 8.56334 4.31547 -21.3684 4.46841 2.06146 26.0924 -7.95139e-016 4.77083e-015 1.59028e-014 0 4.77083e-015 -0 -5.29669e-031 4.77083e-015 6.36111e-015 -7.95139e-016 7.95139e-016 1.59028e-014 2.38542e-015 2.38542e-015 1.27222e-014 -1.05934e-030 4.77083e-015 1.27222e-014 -7.94503e-031 4.77083e-015 9.54166e-015 2.38542e-015 2.38542e-015 1.27222e-014 -1.05934e-030 4.77083e-015 1.27222e-014 -7.94503e-031 4.77083e-015 9.54166e-015 -7.95139e-016 7.95139e-016 1.59028e-014 2.38542e-015 2.38542e-015 1.27222e-014 -1.05934e-030 4.77083e-015 1.27222e-014 -7.94503e-031 4.77083e-015 9.54166e-015 2.38542e-015 2.38542e-015 1.27222e-014 -1.05934e-030 4.77083e-015 1.27222e-014 -7.94503e-031 4.77083e-015 9.54166e-015 -1.18886 -14.9536 13.8624 36.802 78.0805 -34.0601 -36.4652 65.7457 58.4131 1.4016 -17.4389 -14.4082 -80.0605 83.4279 77.2026 11.6385 37.8511 -15.6846 
-0.0708212 -4.47893 7.3766 0 16.7732 -0 -0.255059 5.89674 -0.172983 -0.496084 11.7942 -0.321991 -0.496084 11.7942 -0.321991 1.78654e-005 6.60763 -1.48683e-006 2.2766e-007 17.0019 -2.17541e-007 3.29313 -0.637568 3.76831 -76.2532 -1.81773 7.20038 -23.1084 5.97676 21.6731 2.22641 0.879452 -28.8569 4.79214e-006 -1.9732e-006 2.60237e-006 -7.95139e-016 2.78299e-015 -6.36111e-015 -1.19271e-015 2.38542e-015 -1.27222e-014 -3.97569e-016 0 6.36111e-015 4.79214e-006 -1.9732e-006 2.60237e-006 0 1.19271e-015 -0 7.95139e-016 2.38542e-015 3.18055e-015 4.79214e-006 -1.9732e-006 2.60237e-006 0 1.19271e-015 -0 7.95139e-016 2.38542e-015 3.18055e-015 -3.97569e-016 0 6.36111e-015 4.79214e-006 -1.9732e-006 2.60237e-006 0 1.19271e-015 -0 7.95139e-016 2.38542e-015 3.18055e-015 4.79214e-006 -1.9732e-006 2.60237e-006 0 1.19271e-015 -0 7.95139e-016 2.38542e-015 3.18055e-015 11.0248 0.0596413 -5.37584 69.5999 -1.33178 -8.78543 8.86471 4.35082 -21.3708 4.07475 2.42386 25.9946 -1.59028e-015 -7.95139e-016 3.18055e-015 -1.59028e-015 -7.95139e-016 3.18055e-015 -0 0 3.18055e-015 -0 0 3.18055e-015 2.38542e-015 -1.59028e-015 1.59028e-014 -0 0 3.18055e-015 -7.95139e-016 -1.59028e-015 6.36111e-015 2.38542e-015 -1.59028e-015 1.59028e-014 -0 0 3.18055e-015 -7.95139e-016 -1.59028e-015 6.36111e-015 -0 0 3.18055e-015 2.38542e-015 -1.59028e-015 1.59028e-014 -0 0 3.18055e-015 -7.95139e-016 -1.59028e-015 6.36111e-015 2.38542e-015 -1.59028e-015 1.59028e-014 -0 0 3.18055e-015 -7.95139e-016 -1.59028e-015 6.36111e-015 -1.151 -16.0475 13.939 37.8557 78.3067 -35.0781 -36.5052 65.7624 58.4564 1.34972 -18.4865 -14.4835 -80.2081 83.428 77.3517 11.6397 37.8495 -15.6857 
-0.0721962 -4.51459 7.253 0 17.5501 -0 -0.254736 5.31443 -0.17427 -0.496381 10.6296 -0.326814 -0.496382 10.6296 -0.326814 4.85793e-006 6.21977 1.32021e-006 -1.76349e-007 16.0042 -6.82312e-008 3.60414 1.31255 3.99008 -76.253 -1.81778 7.20046 -23.5134 6.11012 21.6828 2.69304 1.18322 -28.8129 1.4688e-006 1.9937e-006 3.25813e-006 -5.44023e-007 1.24345e-007 -8.97601e-007 5.44023e-007 -1.24345e-007 8.97601e-007 0 0 -0 1.4688e-006 1.9937e-006 3.25813e-006 -5.44023e-007 1.24345e-007 -8.97601e-007 5.44023e-007 -1.24345e-007 8.97601e-007 1.4688e-006 1.9937e-006 3.25813e-006 -5.44023e-007 1.24345e-007 -8.97601e-007 5.44023e-007 -1.24345e-007 8.97601e-007 0 0 -0 1.4688e-006 1.9937e-006 3.25813e-006 -5.44023e-007 1.24345e-007 -8.97601e-007 5.44023e-007 -1.24345e-007 8.97601e-007 1.4688e-006 1.9937e-006 3.25813e-006 -5.44023e-007 1.24345e-007 -8.97601e-007 5.44023e-007 -1.24345e-007 8.97601e-007 10.2845 2.01025 -5.93715 69.996 -1.37604 -8.86731 9.16608 4.3873 -21.3733 3.68142 2.78701 25.8992 -1.59028e-015 3.18055e-015 -3.18055e-015 -1.32417e-031 2.38542e-015 3.18055e-015 -1.59028e-015 2.38542e-015 3.18055e-015 -7.95139e-016 7.95139e-016 -3.18055e-015 1.59028e-015 0 1.27222e-014 -1.59028e-015 1.59028e-015 3.18055e-015 -1.59028e-015 2.38542e-015 -0 1.59028e-015 0 1.27222e-014 -1.59028e-015 1.59028e-015 3.18055e-015 -1.59028e-015 2.38542e-015 -0 -7.95139e-016 7.95139e-016 -3.18055e-015 1.59028e-015 0 1.27222e-014 -1.59028e-015 1.59028e-015 3.18055e-015 -1.59028e-015 2.38542e-015 -0 1.59028e-015 0 1.27222e-014 -1.59028e-015 1.59028e-015 3.18055e-015 -1.59028e-015 2.38542e-015 -0 -1.11112 -17.1249 14.018 38.8945 78.5149 -36.085 -36.5453 65.7792 58.4999 1.29712 -19.5658 -14.5587 -80.6096 83.4342 77.7478 11.6409 37.848 -15.6869 
